<svg id="Group_59" data-name="Group 59" xmlns="http://www.w3.org/2000/svg" xmlns:xlink="http://www.w3.org/1999/xlink" width="95.463" height="96.785" viewBox="0 0 95.463 96.785">
  <defs>
    <clipPath id="clip-path">
      <rect id="Rectangle_32" data-name="Rectangle 32" width="95.463" height="96.785" fill="#2463af"/>
    </clipPath>
  </defs>
  <g id="Group_58" data-name="Group 58" clip-path="url(#clip-path)">
    <path id="Path_41" data-name="Path 41" d="M.077,0H95.455c0,.22.008.441.008.661q0,47.261,0,94.521c0,.22-.014.441-.007.661.022.666-.261,1-.96.933-.249-.025-.5,0-.755,0H1.77c-.315,0-.631-.021-.944,0-.614.04-.862-.247-.821-.842.017-.251,0-.5,0-.755q0-46.93,0-93.86C.006.877.052.438.077,0m47.6,90.961h40.5c1.349,0,1.353,0,1.353-1.379q0-32.526,0-65.052c0-1.418,0-1.421-1.407-1.421H7.214c-1.4,0-1.4,0-1.4,1.427q0,32.479,0,64.958c0,1.465,0,1.467,1.452,1.467h40.41M47.669,5.739H7.541c-.283,0-.567.016-.849,0-.659-.04-.884.282-.881.912q.022,4.815,0,9.631c0,.65.29.909.913.9,1.416-.01,2.833-.014,4.249,0,.686.008.956-.3.941-.977-.025-1.164.015-2.329-.007-3.493-.013-.646.254-.9.9-.891,1.321.024,2.644.028,3.965,0,.7-.016.952.279.938.955-.025,1.164.011,2.329-.007,3.493-.01.642.276.918.906.914,1.416-.009,2.833-.013,4.249,0,.673.008.972-.271.957-.961-.025-1.164.013-2.329-.008-3.493-.011-.63.22-.92.88-.908,1.321.026,2.644.027,3.965,0,.684-.016.97.249.955.939-.026,1.132.02,2.266-.01,3.4-.019.718.255,1.041.989,1.029q2.077-.034,4.154,0c.745.012.994-.334.974-1.042-.031-1.1.018-2.2-.014-3.3-.02-.7.194-1.047.96-1.023q1.934.06,3.871,0c.759-.023.993.317.974,1.02-.028,1.069.036,2.142-.017,3.209-.043.88.33,1.147,1.168,1.147q22.849-.021,45.7,0c.9,0,1.212-.309,1.2-1.214-.043-2.926-.015-5.854-.016-8.781,0-1.464,0-1.465-1.456-1.465H47.669" transform="translate(0)" fill="#2463af"/>
    <path id="Path_42" data-name="Path 42" d="M166.169,191.518a26.119,26.119,0,1,1-26.033-26.145,26.166,26.166,0,0,1,26.033,26.145m-26.12-2.931c1.479,0,2.959-.025,4.438.011.753.018,1.02-.289.958-1.015a44.884,44.884,0,0,0-1.956-10.739,14.32,14.32,0,0,0-2.471-4.85c-.726-.849-1.18-.839-1.918.009a12.075,12.075,0,0,0-2.01,3.612,40.97,40.97,0,0,0-2.407,12.263c-.047.655.348.712.835.711,1.511,0,3.022,0,4.533,0m.058,5.813h-3.3c-2.083,0-2.131,0-1.989,2.062a35.307,35.307,0,0,0,2.619,11.728A10.877,10.877,0,0,0,139,210.871c.826.994,1.281,1,2.107.028a10.252,10.252,0,0,0,1.5-2.505c1.874-4.17,2.481-8.617,2.843-13.117.054-.667-.269-.89-.9-.881-1.479.021-2.959.007-4.438.005m8.39-21.265c.4,1.291.772,2.41,1.089,3.545a47.7,47.7,0,0,1,1.671,10.482c.065,1.31.18,1.424,1.508,1.425,2.073,0,4.147-.023,6.219.011.877.015,1.074-.294.893-1.139a20.2,20.2,0,0,0-7.112-11.675,18.431,18.431,0,0,0-4.269-2.649m-16.884.134a3.2,3.2,0,0,0-.545.132A20.035,20.035,0,0,0,120.2,187.784c-.144.708.21.809.771.807,2.3-.009,4.595-.021,6.892.006.764.009.951-.353.976-1.041a48.177,48.177,0,0,1,2.773-14.285m16.922,36.415a1.053,1.053,0,0,0,.83-.248,20.1,20.1,0,0,0,10.5-13.926c.212-.979.108-1.1-.9-1.107-2.077-.009-4.155,0-6.233,0-1.278,0-1.413.122-1.472,1.368a48.861,48.861,0,0,1-1.757,10.872c-.285,1.02-.641,2.02-.969,3.044m-17.139.041a.737.737,0,0,0,.009-.676,46.921,46.921,0,0,1-2.569-13.759c-.033-.72-.378-.9-1.02-.9-2.234.017-4.468.029-6.7-.006-.807-.013-1.05.218-.88,1.05a20.124,20.124,0,0,0,4.756,9.507,19.277,19.277,0,0,0,6.405,4.78" transform="translate(-92.371 -134.079)" fill="#2463af"/>
  </g>
</svg>
