<svg id="Group_61" data-name="Group 61" xmlns="http://www.w3.org/2000/svg" xmlns:xlink="http://www.w3.org/1999/xlink" width="139.898" height="40.836" viewBox="0 0 139.898 40.836">
  <defs>
    <clipPath id="clip-path">
      <rect id="Rectangle_33" data-name="Rectangle 33" width="139.898" height="40.836" fill="#2463af"/>
    </clipPath>
  </defs>
  <g id="Group_60" data-name="Group 60" transform="translate(0 0)" clip-path="url(#clip-path)">
    <path id="Path_43" data-name="Path 43" d="M10.7,40.158c-2.508,0-5.01.037-7.515-.016-1.387-.028-2.7-.375-3.034-1.994-.311-1.524-.251-3.171,1.389-3.792,2.7-1.023,2.705-3.09,2.682-5.375-.052-4.85.048-9.7-.023-14.551C4.144,11.065,5.3,7.271.856,5.36-.222,4.9-.08,3.3.219,2.118A2.443,2.443,0,0,1,2.917.307C8.658.329,14.468-.111,20.133.574,28.606,1.6,33.8,8.115,33.942,16.754c.025,1.617.018,3.234.014,4.85-.02,12.276-6.1,18.414-18.4,18.564-1.62.02-3.244,0-4.863,0v-.014m1.969-20.017c0,2.344-.128,4.7.037,7.033.139,1.9-1.042,4.612,1.585,5.384,2.826.831,5.859.653,8.267-1.633,4.365-4.144,4.23-17.749-.21-21.728C20,7.1,17.12,7.084,14.436,7.81c-2.727.736-1.6,3.406-1.734,5.3-.157,2.335-.036,4.689-.036,7.033" transform="translate(0 0.146)" fill="#2463af"/>
    <path id="Path_44" data-name="Path 44" d="M35.51.219C39.485.211,43.46.229,47.436.206,49.764.192,51.212,1.25,51,3.618c-.249,2.746,1.576,6.277-1.775,7.981-2.117,1.076-4.158.45-5.752-2.27-2.117-3.614-6.174-1.965-9.24-1.423-2.627.462-1.487,3.4-1.608,5.316-.133,2.09,1.158,2.81,3.077,2.8,2.207-.012,4.416.053,6.624.041s3.214,1.133,3.216,3.266c0,2.056-.767,3.394-3.086,3.365-1.766-.021-3.547.174-5.3.005-3.436-.333-5.051,1.019-4.539,4.5.29,1.976-1.119,5.2,2.109,5.357,3.114.155,7.23,2.407,9.256-2.326.918-2.143,2.768-1.866,4.521-1.732,2.138.164,2.4,1.747,2.568,3.461.743,7.572.1,8.283-7.648,8.258-6.332-.021-12.662.007-18.992-.06-1.7-.018-3.753.311-4.361-2.008A3.238,3.238,0,0,1,22.207,33.9c1.951-.749,1.882-2.4,1.884-4.039.011-6.46-.005-12.92.041-19.38.012-1.878-.242-3.5-2.259-4.31-1.848-.742-2.2-2.259-1.793-3.995C20.516.315,22.091.247,23.584.236,27.559.2,31.534.226,35.51.219" transform="translate(15.5 0.16)" fill="#2463af"/>
    <path id="Path_45" data-name="Path 45" d="M77.994.261c1.916,0,3.833-.016,5.749,0,5.163.044,7.348,3.186,5.412,8-1.069,2.657-3.383,2.479-5.039,1.028-2.346-2.056-4.934-1.523-7.524-1.619-2.615-.094-3.159,1.519-3.189,3.714-.039,2.812,1.674,2.4,3.577,2.278,6.9-.436,11.037,2.771,12.673,9.621,1.606,6.722-1.377,13.374-7.156,15.958-5.656,2.529-13.758.717-16.837-3.929-1.277-1.928-2.686-4.23-.694-6.387,1.435-1.555,6.325-.292,7.666,1.839,1.54,2.449,3.4,3.751,6.2,2.159,2.718-1.547,3.673-6.885,1.736-9.994-1.611-2.583-3.885-3.557-6.755-1.832a25.971,25.971,0,0,1-2.14,1.544c-3.73,1.745-6.983-.395-6.684-4.4.3-4.1.888-8.187.994-12.287C66.1,1.687,67.875-.248,72.249.229a52.879,52.879,0,0,0,5.745.032" transform="translate(49.813 0.123)" fill="#2463af"/>
    <path id="Path_46" data-name="Path 46" d="M38.253,16.472A17.294,17.294,0,0,1,47.4,2.3c6.055-3.3,12.431-2.924,18.61.366,3.618,1.926,4.859,4.829,4.432,8.751-.2,1.852-.82,3.111-2.86,3.2-1.7.076-3.436-.068-3.837-2.1-.8-4.038-3.294-5.663-7.23-5.494-4.153.18-6.866,2.367-8.367,6.115a18.018,18.018,0,0,0,.872,16.138,8.4,8.4,0,0,0,8.08,4.436c3.383-.117,5.957-1.41,6.579-5.2.374-2.277,2.161-2.506,4.061-2.378,2.088.142,2.529,1.51,2.734,3.31.448,3.933-.815,6.891-4.4,8.779-6.168,3.248-12.589,3.625-18.608.269C40.489,34.6,38.1,27.905,38.253,16.472" transform="translate(29.78 0)" fill="#2463af"/>
  </g>
</svg>
