<svg id="Group_63" data-name="Group 63" xmlns="http://www.w3.org/2000/svg" xmlns:xlink="http://www.w3.org/1999/xlink" width="83.347" height="97.572" viewBox="0 0 83.347 97.572">
  <defs>
    <clipPath id="clip-path">
      <rect id="Rectangle_34" data-name="Rectangle 34" width="83.347" height="97.572" fill="#2463af"/>
    </clipPath>
  </defs>
  <g id="Group_62" data-name="Group 62" clip-path="url(#clip-path)">
    <path id="Path_47" data-name="Path 47" d="M22.653,97.572c-5.3-1.264-8.875-4.832-11.934-9.038A56.023,56.023,0,0,1,2.472,70.972,58.308,58.308,0,0,1,.013,53.342a46.385,46.385,0,0,1,2.23-14.5,19.65,19.65,0,0,1,6.252-9.361c3.993-3.124,8.639-3.87,13.554-3.626a23.652,23.652,0,0,1,12,4.353,24.756,24.756,0,0,0,3.475,1.962c.625.282.923.205.92-.578a25.931,25.931,0,0,1,.681-6.314c.132-.535-.029-.7-.592-.75A21.58,21.58,0,0,1,18.867,6.1a17.949,17.949,0,0,1-.226-2.554A3.053,3.053,0,0,1,21.414.26,21.624,21.624,0,0,1,44.821,14.34c.391,1.105.385,1.1,1.409.48a24.642,24.642,0,0,1,9.8-3.119,23.311,23.311,0,0,1,2.556-.189,2.975,2.975,0,1,1,.262,5.935,28.737,28.737,0,0,0-4.8.63c-.463.106-.924.223-1.378.363-4.774,1.475-7.315,3.916-8.093,10.177a28.915,28.915,0,0,0-.187,3.034c-.015.812.213,1.019.987.7a26.893,26.893,0,0,0,4.242-2.337,24.232,24.232,0,0,1,8.663-3.768,22.451,22.451,0,0,1,12.8,1.037c5.07,2.092,8.032,6.117,9.862,11.106a43.041,43.041,0,0,1,2.282,12.192,61.447,61.447,0,0,1-4.939,27.73,46.1,46.1,0,0,1-7.716,12.821c-2.679,3.077-5.795,5.485-9.862,6.434h-6.28A44.759,44.759,0,0,1,44.588,95.2a9.287,9.287,0,0,0-5.809,0,44.755,44.755,0,0,1-9.845,2.376Zm34.723-5.93c3.215.571,5.738-1.137,7.97-3.472a29.006,29.006,0,0,0,4.218-5.734,58.526,58.526,0,0,0,7.7-25.043,45.987,45.987,0,0,0-1.206-14.9c-.84-3.247-2.165-6.315-5-8.311-4.629-3.261-9.638-3.017-14.688-1.1a39.491,39.491,0,0,0-5.687,3.257c-5.649,3.306-11.388,3.546-17.19.433-1.367-.733-2.676-1.577-3.989-2.406a16.872,16.872,0,0,0-12.223-2.351c-4.94.838-7.822,4.07-9.381,8.593A42.909,42.909,0,0,0,6.212,59.028a58.292,58.292,0,0,0,6.756,21.937,30.438,30.438,0,0,0,5.542,7.686c1.633,1.577,3.409,2.967,5.85,3.025a28.394,28.394,0,0,0,11.018-1.643,17.275,17.275,0,0,1,12.631,0,24.541,24.541,0,0,0,9.367,1.612M26.533,6.1c-1.565-.063-1.657.038-1.362,1.1a15.376,15.376,0,0,0,5.457,8.144,14.945,14.945,0,0,0,8.183,3.228c.8.064,1.013-.218.794-1a15.375,15.375,0,0,0-1.619-3.838A15.348,15.348,0,0,0,26.533,6.1" transform="translate(0 0)" fill="#2463af"/>
  </g>
</svg>
