<svg id="Group_57" data-name="Group 57" xmlns="http://www.w3.org/2000/svg" xmlns:xlink="http://www.w3.org/1999/xlink" width="70.697" height="92.705" viewBox="0 0 70.697 92.705">
  <defs>
    <clipPath id="clip-path">
      <rect id="Rectangle_31" data-name="Rectangle 31" width="70.697" height="92.705" fill="#2463af"/>
    </clipPath>
  </defs>
  <g id="Group_56" data-name="Group 56" clip-path="url(#clip-path)">
    <path id="Path_36" data-name="Path 36" d="M6.576,92.7a8.993,8.993,0,0,1-4.811-3.024A7.938,7.938,0,0,1,0,84.757Q0,46.369.009,7.982A8.069,8.069,0,0,1,7.981.017C20.641,0,33.3.014,45.962,0a3.239,3.239,0,0,1,2.423,1Q59.026,11.654,69.68,22.293a3.435,3.435,0,0,1,1.018,2.6q-.022,29.706-.013,59.412a8.166,8.166,0,0,1-6.066,8.22c-.171.053-.339.119-.509.179ZM5.555,46.335q0,18.765,0,37.53c0,2.3,1.027,3.347,3.288,3.347q26.5,0,52.994,0c2.234,0,3.292-1.043,3.292-3.253q0-27.808.017-55.616c0-.812-.2-1.1-1.058-1.088-4.159.041-8.32.03-12.479.015a8.1,8.1,0,0,1-8.185-8.217c-.014-4.1,0-8.2,0-12.3,0-1.187,0-1.19-1.192-1.19H9.04c-2.524,0-3.485.969-3.485,3.513q0,18.629,0,37.258M60.711,21.719,48.977,9.991c0,2.766-.012,5.715,0,8.665a2.8,2.8,0,0,0,3.114,3.06c2.078.012,4.156,0,6.234,0h2.381" transform="translate(0 0)" fill="#2463af"/>
    <path id="Path_37" data-name="Path 37" d="M86.3,164.277c-5.4,0-10.793.008-16.189-.006A2.733,2.733,0,0,1,67.362,162a2.762,2.762,0,0,1,1.866-3.131,3.221,3.221,0,0,1,.976-.135q16.188-.01,32.377,0a2.774,2.774,0,1,1,0,5.544q-8.14.017-16.279,0" transform="translate(-51.051 -120.36)" fill="#2463af"/>
    <path id="Path_38" data-name="Path 38" d="M86.4,209.189c-5.426,0-10.853.007-16.279-.006a2.738,2.738,0,0,1-2.763-2.262,2.8,2.8,0,0,1,1.85-3.151,3.147,3.147,0,0,1,1.07-.133q16.1,0,32.2,0a2.78,2.78,0,1,1,.024,5.548q-8.049.012-16.1,0" transform="translate(-51.049 -154.416)" fill="#2463af"/>
    <path id="Path_39" data-name="Path 39" d="M86.3,254.1c-5.4,0-10.793.008-16.189-.006a2.733,2.733,0,0,1-2.752-2.275,2.762,2.762,0,0,1,1.867-3.131,3.219,3.219,0,0,1,.976-.135q16.189-.01,32.377,0a2.774,2.774,0,1,1,0,5.544q-8.14.017-16.279,0" transform="translate(-51.05 -188.474)" fill="#2463af"/>
    <path id="Path_40" data-name="Path 40" d="M80.932,299.012c-3.617,0-7.235.012-10.852-.008a2.722,2.722,0,0,1-2.714-2.316,2.761,2.761,0,0,1,1.911-3.1,3.724,3.724,0,0,1,1.069-.122q10.625-.011,21.251,0a2.783,2.783,0,1,1,0,5.55c-3.557.008-7.114,0-10.671,0" transform="translate(-51.06 -222.528)" fill="#2463af"/>
  </g>
</svg>
