<?xml version="1.0" encoding="UTF-8"?>
<svg id="Layer_1" xmlns="http://www.w3.org/2000/svg" version="1.1" viewBox="0 0 24 24">
  <!-- Generator: Adobe Illustrator 29.5.1, SVG Export Plug-In . SVG Version: 2.1.0 Build 141)  -->
  <defs>
    <style>
      .st0 {
        fill: #2463ae;
      }
    </style>
  </defs>
  <path class="st0" d="M24,10c0-2.8-2.2-5-5-5h-2v-1c0-1.7-1.3-3-3-3h-2v2h2c.6,0,1,.4,1,1v13H2v-4H0v6h2c0,.2,0,.3,0,.5,0,1.9,1.6,3.5,3.5,3.5s3.5-1.6,3.5-3.5,0-.3,0-.5h6.1c0,.2,0,.3,0,.5,0,1.9,1.6,3.5,3.5,3.5s3.5-1.6,3.5-3.5,0-.3,0-.5h2v-9ZM7,19.5c0,.8-.7,1.5-1.5,1.5s-1.5-.7-1.5-1.5,0-.4,0-.5h2.8c0,.1,0,.3,0,.5h0ZM19,7c1.7,0,3,1.3,3,3v1h-5v-4h2ZM20,19.5c0,.8-.7,1.5-1.5,1.5s-1.5-.7-1.5-1.5,0-.4,0-.5h2.8c0,.1,0,.3,0,.5h0ZM17,17v-4h5v4h-5ZM10,3H0V1h10v2ZM8,7H0v-2h8v2ZM6,11H0v-2h6v2Z"/>
</svg>