<svg id="Group_55" data-name="Group 55" xmlns="http://www.w3.org/2000/svg" xmlns:xlink="http://www.w3.org/1999/xlink" width="80.182" height="90.386" viewBox="0 0 80.182 90.386">
  <defs>
    <clipPath id="clip-path">
      <rect id="Rectangle_18" data-name="Rectangle 18" width="80.182" height="90.386" fill="#a5ceff"/>
    </clipPath>
  </defs>
  <g id="Group_13" data-name="Group 13" clip-path="url(#clip-path)">
    <path id="Path_29" data-name="Path 29" d="M.066,0h53.6c4.483,4.491,8.951,9,13.462,13.46A3.249,3.249,0,0,1,68.2,16c-.04,8.637-.013,17.275-.038,25.913a1.916,1.916,0,0,0,.911,1.735C77.644,49.96,81.453,58.42,79.808,68.966,77.113,86.233,57.856,95.625,42.464,87.322a4.212,4.212,0,0,0-2.089-.528Q20.94,86.814,1.5,86.8C0,86.8,0,86.8,0,85.312Q0,43.27,0,1.227C0,.818.044.408.066,0M5.588,43.365q0,18.332,0,36.664c0,1.161.029,1.188,1.187,1.188q13.529,0,27.057-.005c.277,0,.671.16.81-.139s-.231-.5-.4-.723a25.049,25.049,0,0,1-5.074-19.067A25.642,25.642,0,0,1,61.552,40.071c1,.275,1.041.252,1.042-.806q0-7.8,0-15.6c0-1.215-.015-1.231-1.237-1.231q-7.139,0-14.278,0c-1.195,0-1.228-.04-1.229-1.247q0-7.139,0-14.278c0-1.386,0-1.389-1.342-1.389H6.96c-1.37,0-1.372,0-1.372,1.361q0,18.244,0,36.488M54.558,84.76a20.041,20.041,0,1,0-20.042-20.1,20.011,20.011,0,0,0,20.042,20.1m-3.084-78.8c-.014.28-.035.511-.035.742q0,4.449,0,8.9c0,1.073.084,1.162,1.15,1.165q4.4.012,8.81,0c.262,0,.591.127.736-.137L51.474,5.957" transform="translate(0 0.001)" fill="#a5ceff"/>
    <path id="Path_30" data-name="Path 30" d="M73.644,100.939q6.172,0,12.343,0c1.243,0,1.282.048,1.286,1.3,0,1.146-.025,2.293.008,3.438.02.693-.285.967-.943.939-.235-.01-.47,0-.705,0q-12.035,0-24.069,0c-1.507,0-1.521-.018-1.524-1.523,0-1-.008-2,0-3,.011-1.06.1-1.152,1.17-1.154q6.216-.01,12.431,0" transform="translate(-45.894 -77.161)" fill="#a5ceff"/>
    <path id="Path_31" data-name="Path 31" d="M70.2,60.767c-3.025,0-6.05-.024-9.073.016-.846.011-1.158-.277-1.126-1.114.045-1.173.025-2.349.009-3.523-.009-.642.209-.973.915-.971q9.294.021,18.587,0c.642,0,.887.266.873.9-.027,1.262-.034,2.526,0,3.788.02.7-.269.913-.938.908-3.083-.022-6.166-.01-9.25-.009" transform="translate(-45.865 -42.178)" fill="#a5ceff"/>
    <path id="Path_32" data-name="Path 32" d="M68.086,152.427c-2.288,0-4.576.006-6.864,0-1.108,0-1.182-.084-1.19-1.218s.021-2.288-.007-3.432c-.018-.7.251-1.018.971-1.016q7.084.017,14.168,0c.711,0,1,.3.977,1.009q-.046,1.847,0,3.7c.016.732-.316.975-1.012.969-2.346-.021-4.693-.008-7.04-.007" transform="translate(-45.884 -112.189)" fill="#a5ceff"/>
    <path id="Path_33" data-name="Path 33" d="M204.1,240.809c-.646,0-1.293-.018-1.938.005-.582.021-.961-.217-.859-.81.273-1.582-.367-2.357-1.912-2.8a14.72,14.72,0,0,1-3.625-2.146c-.385-.246-.4-.524-.158-.885q1.192-1.8,2.363-3.613a.545.545,0,0,1,.882-.176c.51.347,1.059.641,1.543,1.02a5.33,5.33,0,0,0,3.907,1.005,2.428,2.428,0,0,0,2.213-2.05c.154-.945-.309-1.59-1.529-2.045a37.643,37.643,0,0,1-4.516-1.969c-5.612-2.974-3.793-9.562-.216-11.71a1.737,1.737,0,0,0,1.029-1.9,3.727,3.727,0,0,1,0-.528c.011-1.245.053-1.293,1.289-1.3,1.145,0,2.291.017,3.436,0,.616-.011,1.023.232.919.86-.248,1.5.48,2.1,1.838,2.5A21.371,21.371,0,0,1,212,215.852c.469.232.55.523.291.987-.659,1.179-1.308,2.365-1.915,3.571-.305.607-.654.62-1.19.318a10.254,10.254,0,0,0-4.035-1.672,2.933,2.933,0,0,0-1.8.279,1.171,1.171,0,0,0-.016,2.187,19.89,19.89,0,0,0,3.477,1.489c3.107,1.067,5.048,3.161,5.261,6.476a7.626,7.626,0,0,1-4.233,7.624,1.5,1.5,0,0,0-.9,1.515c.018,2.6.173,2.136-2.223,2.186-.205,0-.411,0-.617,0Z" transform="translate(-149.404 -161.226)" fill="#a5ceff"/>
  </g>
</svg>
