<svg width="30" height="30" viewBox="0 0 30 30" fill="none" xmlns="http://www.w3.org/2000/svg">
<g clip-path="url(#clip0_1_2357)">
<path d="M17.0349 2.6205C16.968 2.55563 16.878 2.52004 16.7847 2.52153C16.6915 2.52302 16.6027 2.56149 16.5378 2.62847L14.7763 4.44774C14.7128 4.51332 14.6772 4.60103 14.6772 4.69231C14.6772 4.7836 14.7128 4.87131 14.7763 4.93688L16.5378 6.75616C16.6027 6.82315 16.6915 6.86162 16.7847 6.86312C16.878 6.86462 16.968 6.82902 17.035 6.76416C17.1019 6.69929 17.1404 6.61048 17.1419 6.51725C17.1434 6.42401 17.1078 6.33401 17.043 6.26702L15.5182 4.69231L17.043 3.11761C17.1078 3.05062 17.1434 2.96061 17.1419 2.86739C17.1404 2.77416 17.1019 2.68535 17.0349 2.6205Z" fill="url(#paint0_linear_1_2357)"/>
<path d="M19.659 6.76415C19.7259 6.82902 19.8159 6.86461 19.9092 6.86312C20.0024 6.86163 20.0912 6.82316 20.1561 6.75619L21.9176 4.93691C21.9811 4.87133 22.0166 4.78362 22.0166 4.69234C22.0166 4.60105 21.9811 4.51334 21.9176 4.44777L20.1563 2.62849C20.0914 2.5615 20.0026 2.52303 19.9094 2.52153C19.8162 2.52003 19.7261 2.55563 19.6592 2.62049C19.5922 2.68536 19.5537 2.77417 19.5522 2.8674C19.5507 2.96064 19.5863 3.05064 19.6512 3.11763L21.1758 4.69234L19.651 6.26704C19.5862 6.33402 19.5506 6.42401 19.552 6.51724C19.5535 6.61046 19.592 6.69928 19.659 6.76415Z" fill="url(#paint1_linear_1_2357)"/>
<path d="M19.0805 1.79001C18.9901 1.76717 18.8943 1.78117 18.8142 1.82894C18.7342 1.8767 18.6764 1.95432 18.6535 2.04472L17.3586 7.16792C17.3469 7.2128 17.3443 7.25954 17.3507 7.30545C17.3572 7.35136 17.3727 7.39553 17.3963 7.43543C17.42 7.47533 17.4512 7.51016 17.4884 7.53792C17.5255 7.56568 17.5678 7.58582 17.6127 7.59718C17.6577 7.60854 17.7044 7.6109 17.7503 7.60411C17.7962 7.59733 17.8402 7.58154 17.88 7.55765C17.9197 7.53377 17.9543 7.50225 17.9818 7.46493C18.0094 7.42761 18.0292 7.38521 18.0403 7.34019L19.3352 2.21698C19.358 2.12659 19.344 2.03082 19.2963 1.95075C19.2485 1.87068 19.1709 1.81286 19.0805 1.79001Z" fill="url(#paint2_linear_1_2357)"/>
<path d="M16.7454 11.6016H13.8726C13.5695 11.6016 13.2789 11.7219 13.0646 11.9362C12.8504 12.1505 12.73 12.4411 12.73 12.7441C12.73 13.0472 12.8504 13.3378 13.0646 13.5521C13.2789 13.7663 13.5695 13.8867 13.8726 13.8867H16.7454C17.0484 13.8867 17.339 13.7663 17.5533 13.5521C17.7676 13.3378 17.8879 13.0472 17.8879 12.7441C17.8879 12.4411 17.7676 12.1505 17.5533 11.9362C17.339 11.7219 17.0484 11.6016 16.7454 11.6016ZM14.9414 13.1836H13.8726C13.756 13.1836 13.6442 13.1373 13.5618 13.0549C13.4794 12.9725 13.4331 12.8607 13.4331 12.7441C13.4331 12.6276 13.4794 12.5158 13.5618 12.4334C13.6442 12.351 13.756 12.3047 13.8726 12.3047H14.9414V13.1836ZM16.7454 13.1836H15.6446V12.3047H16.7454C16.8619 12.3047 16.9737 12.351 17.0561 12.4334C17.1385 12.5158 17.1848 12.6276 17.1848 12.7441C17.1848 12.8607 17.1385 12.9725 17.0561 13.0549C16.9737 13.1373 16.8619 13.1836 16.7454 13.1836Z" fill="url(#paint3_linear_1_2357)"/>
<path d="M25.1762 17.4394C25.453 17.4394 25.7236 17.3573 25.9537 17.2036C26.1839 17.0498 26.3633 16.8312 26.4692 16.5755C26.5751 16.3198 26.6029 16.0384 26.5489 15.7669C26.4949 15.4954 26.3616 15.246 26.1659 15.0503C25.9701 14.8546 25.7208 14.7213 25.4493 14.6673C25.1778 14.6133 24.8964 14.641 24.6407 14.7469C24.385 14.8528 24.1664 15.0322 24.0126 15.2624C23.8588 15.4925 23.7767 15.7631 23.7767 16.0399C23.7772 16.4109 23.9247 16.7666 24.1871 17.029C24.4494 17.2914 24.8052 17.439 25.1762 17.4394ZM25.1762 15.3435C25.3139 15.3435 25.4486 15.3843 25.5631 15.4608C25.6776 15.5374 25.7669 15.6461 25.8196 15.7734C25.8723 15.9006 25.8861 16.0406 25.8593 16.1757C25.8324 16.3108 25.7661 16.4349 25.6687 16.5323C25.5713 16.6297 25.4472 16.696 25.3121 16.7229C25.177 16.7498 25.037 16.736 24.9098 16.6833C24.7825 16.6306 24.6737 16.5413 24.5972 16.4268C24.5207 16.3123 24.4799 16.1776 24.4799 16.0399C24.4801 15.8553 24.5535 15.6783 24.6841 15.5478C24.8146 15.4172 24.9916 15.3438 25.1762 15.3435Z" fill="url(#paint4_linear_1_2357)"/>
<path d="M19.4121 14.6404C19.1353 14.6404 18.8647 14.7225 18.6346 14.8762C18.4044 15.03 18.225 15.2486 18.1191 15.5043C18.0132 15.7601 17.9855 16.0414 18.0395 16.3129C18.0935 16.5844 18.2268 16.8338 18.4225 17.0295C18.6182 17.2252 18.8676 17.3585 19.1391 17.4125C19.4105 17.4665 19.6919 17.4388 19.9477 17.3329C20.2034 17.2269 20.422 17.0476 20.5757 16.8174C20.7295 16.5873 20.8116 16.3167 20.8116 16.0399C20.8112 15.6688 20.6636 15.3131 20.4012 15.0508C20.1389 14.7884 19.7831 14.6408 19.4121 14.6404ZM19.4121 16.7363C19.2744 16.7363 19.1397 16.6954 19.0252 16.6189C18.9107 16.5424 18.8214 16.4336 18.7687 16.3064C18.716 16.1791 18.7022 16.0391 18.7291 15.904C18.756 15.7689 18.8223 15.6449 18.9197 15.5475C19.0171 15.4501 19.1411 15.3838 19.2762 15.3569C19.4113 15.33 19.5513 15.3438 19.6786 15.3965C19.8058 15.4492 19.9146 15.5385 19.9911 15.653C20.0676 15.7675 20.1085 15.9022 20.1085 16.0399C20.1082 16.2245 20.0348 16.4015 19.9042 16.5321C19.7737 16.6626 19.5967 16.736 19.4121 16.7363Z" fill="url(#paint5_linear_1_2357)"/>
<path d="M23.6938 18.9217C23.6938 18.6449 23.6117 18.3743 23.4579 18.1442C23.3042 17.9141 23.0856 17.7347 22.8299 17.6287C22.5741 17.5228 22.2927 17.4951 22.0213 17.5491C21.7498 17.6031 21.5004 17.7364 21.3047 17.9321C21.109 18.1278 20.9757 18.3772 20.9217 18.6487C20.8677 18.9202 20.8954 19.2016 21.0013 19.4573C21.1072 19.713 21.2866 19.9316 21.5168 20.0854C21.7469 20.2392 22.0175 20.3212 22.2943 20.3212C22.6653 20.3208 23.0211 20.1732 23.2834 19.9109C23.5458 19.6485 23.6934 19.2928 23.6938 18.9217ZM21.5979 18.9217C21.5979 18.784 21.6387 18.6494 21.7153 18.5348C21.7918 18.4203 21.9005 18.3311 22.0278 18.2784C22.155 18.2256 22.2951 18.2119 22.4301 18.2387C22.5652 18.2656 22.6893 18.3319 22.7867 18.4293C22.8841 18.5267 22.9504 18.6508 22.9773 18.7859C23.0042 18.921 22.9904 19.061 22.9377 19.1882C22.885 19.3155 22.7957 19.4242 22.6812 19.5008C22.5667 19.5773 22.432 19.6181 22.2943 19.6181C22.1096 19.6179 21.9326 19.5445 21.802 19.414C21.6714 19.2834 21.5979 19.1064 21.5977 18.9217H21.5979Z" fill="url(#paint6_linear_1_2357)"/>
<path d="M22.2943 14.5573C22.5711 14.5573 22.8416 14.4752 23.0717 14.3214C23.3019 14.1675 23.4812 13.949 23.5871 13.6932C23.693 13.4375 23.7207 13.1561 23.6666 12.8846C23.6126 12.6132 23.4793 12.3638 23.2836 12.1681C23.0878 11.9724 22.8385 11.8392 22.567 11.7852C22.2955 11.7312 22.0141 11.7589 21.7584 11.8649C21.5027 11.9708 21.2841 12.1502 21.1304 12.3803C20.9766 12.6105 20.8945 12.881 20.8945 13.1578C20.895 13.5289 21.0426 13.8847 21.305 14.147C21.5674 14.4094 21.9232 14.557 22.2943 14.5573ZM22.2943 12.4614C22.432 12.4615 22.5666 12.5024 22.6811 12.5789C22.7956 12.6555 22.8848 12.7642 22.9375 12.8915C22.9902 13.0187 23.0039 13.1587 22.977 13.2938C22.9501 13.4289 22.8838 13.5529 22.7864 13.6503C22.689 13.7477 22.5649 13.814 22.4298 13.8408C22.2947 13.8677 22.1547 13.8539 22.0275 13.8012C21.9003 13.7485 21.7915 13.6592 21.715 13.5447C21.6385 13.4302 21.5977 13.2955 21.5977 13.1578C21.5979 12.9732 21.6714 12.7961 21.802 12.6656C21.9326 12.535 22.1096 12.4616 22.2943 12.4614Z" fill="url(#paint7_linear_1_2357)"/>
<path d="M21.6626 16.0398C21.6626 16.1647 21.6996 16.2868 21.769 16.3907C21.8384 16.4946 21.9371 16.5756 22.0525 16.6234C22.1679 16.6712 22.2949 16.6837 22.4174 16.6594C22.54 16.635 22.6525 16.5748 22.7409 16.4865C22.8292 16.3982 22.8894 16.2856 22.9137 16.1631C22.9381 16.0406 22.9256 15.9136 22.8778 15.7981C22.83 15.6827 22.749 15.5841 22.6452 15.5147C22.5413 15.4452 22.4192 15.4082 22.2942 15.4082C22.1268 15.4084 21.9662 15.475 21.8478 15.5934C21.7294 15.7118 21.6628 15.8723 21.6626 16.0398ZM22.3657 16.0398C22.3657 16.0539 22.3615 16.0677 22.3537 16.0795C22.3458 16.0913 22.3347 16.1004 22.3216 16.1058C22.3085 16.1112 22.2942 16.1127 22.2803 16.1099C22.2664 16.1071 22.2537 16.1003 22.2437 16.0903C22.2337 16.0803 22.2269 16.0676 22.2241 16.0537C22.2214 16.0399 22.2228 16.0255 22.2282 16.0124C22.2336 15.9994 22.2428 15.9882 22.2545 15.9803C22.2663 15.9725 22.2801 15.9683 22.2942 15.9683C22.3132 15.9683 22.3314 15.9759 22.3447 15.9893C22.3581 16.0027 22.3657 16.0208 22.3657 16.0398Z" fill="url(#paint8_linear_1_2357)"/>
<path d="M9.76763 15H8.78911V14.0198C8.7861 13.9233 8.7464 13.8315 8.67811 13.7633C8.60982 13.695 8.51807 13.6553 8.42155 13.6523H7.0736C6.87948 13.6523 6.73833 13.8257 6.73833 14.0198V15H5.72753C5.63436 15.0039 5.54655 15.0446 5.48339 15.1133C5.42023 15.1819 5.38688 15.2727 5.39067 15.3659V16.7136C5.38928 16.7582 5.39703 16.8026 5.41346 16.8442C5.42989 16.8857 5.45465 16.9234 5.48621 16.955C5.51776 16.9866 5.55545 17.0114 5.59696 17.0279C5.63846 17.0443 5.6829 17.0521 5.72753 17.0508H6.73833V18.0598C6.73676 18.1044 6.74434 18.1489 6.7606 18.1905C6.77686 18.2321 6.80146 18.2699 6.83287 18.3016C6.86429 18.3333 6.90186 18.3583 6.94328 18.3749C6.9847 18.3916 7.02909 18.3996 7.07372 18.3984H8.42167C8.5152 18.4019 8.6063 18.3682 8.67513 18.3048C8.74395 18.2414 8.78492 18.1533 8.78911 18.0598V17.0508H9.76763C9.9618 17.0508 10.1368 16.908 10.1368 16.7138V15.3662C10.1334 15.2696 10.0933 15.178 10.0247 15.1099C9.95616 15.0419 9.8642 15.0026 9.76763 15ZM9.43364 16.3477H8.42167C8.37558 16.3497 8.33034 16.3607 8.28853 16.3802C8.24672 16.3997 8.20915 16.4272 8.17798 16.4612C8.14681 16.4952 8.12264 16.535 8.10686 16.5784C8.09107 16.6217 8.08398 16.6677 8.08598 16.7138V17.6953H7.44145V16.7138C7.43837 16.6174 7.39859 16.5258 7.33024 16.4578C7.26189 16.3897 7.17013 16.3503 7.07372 16.3477H6.0938V15.7031H7.0736C7.26778 15.7031 7.44145 15.56 7.44145 15.3659V14.3555H8.08598V15.3659C8.08447 15.4105 8.0921 15.4549 8.1084 15.4963C8.12471 15.5378 8.14935 15.5755 8.18079 15.6071C8.21223 15.6387 8.24982 15.6636 8.29123 15.6801C8.33264 15.6966 8.37699 15.7044 8.42155 15.7031H9.43364V16.3477Z" fill="url(#paint9_linear_1_2357)"/>
<path d="M7.74756 11.8796C6.92476 11.8796 6.12044 12.1236 5.4363 12.5808C4.75217 13.0379 4.21895 13.6876 3.90408 14.4478C3.5892 15.2079 3.50682 16.0444 3.66734 16.8514C3.82786 17.6584 4.22408 18.3997 4.80589 18.9815C5.38769 19.5633 6.12896 19.9595 6.93595 20.12C7.74295 20.2805 8.57941 20.1982 9.33958 19.8833C10.0998 19.5684 10.7495 19.0352 11.2066 18.3511C11.6637 17.6669 11.9077 16.8626 11.9077 16.0398C11.9065 14.9368 11.4678 13.8794 10.6879 13.0995C9.90795 12.3196 8.85052 11.8809 7.74756 11.8796ZM7.74756 19.4968C7.06382 19.4968 6.39544 19.2941 5.82694 18.9142C5.25843 18.5343 4.81533 17.9944 4.55368 17.3627C4.29203 16.7311 4.22356 16.036 4.35695 15.3654C4.49035 14.6948 4.8196 14.0788 5.30307 13.5953C5.78654 13.1118 6.40253 12.7826 7.07313 12.6492C7.74373 12.5158 8.43882 12.5843 9.07051 12.8459C9.7022 13.1076 10.2421 13.5507 10.622 14.1192C11.0018 14.6877 11.2046 15.3561 11.2046 16.0398C11.2036 16.9563 10.839 17.835 10.1909 18.4831C9.5428 19.1312 8.6641 19.4957 7.74756 19.4968V19.4968Z" fill="url(#paint10_linear_1_2357)"/>
<path d="M29.1673 24.9609L28.2274 18.6165C28.6561 17.6311 28.8331 16.5546 28.7423 15.4838C28.6515 14.413 28.2959 13.3816 27.7074 12.4825C27.1189 11.5833 26.3161 10.8446 25.3711 10.3328C24.4262 9.82106 23.3688 9.55232 22.2942 9.55078H20.5334C20.5754 9.37993 20.651 9.21914 20.7557 9.07781C20.9364 8.8466 21.2037 8.73047 21.5728 8.73047H22.6081C22.8103 8.73074 23.0107 8.69091 23.1975 8.61329C23.3842 8.53566 23.5538 8.42178 23.6963 8.27822C23.8388 8.13467 23.9515 7.96429 24.0277 7.77694C24.104 7.58958 24.1423 7.38897 24.1406 7.1867V1.84441C24.1425 1.64174 24.1042 1.4407 24.0281 1.25285C23.952 1.06501 23.8395 0.894067 23.6971 0.749873C23.5546 0.605679 23.3851 0.491077 23.1982 0.412663C23.0113 0.334249 22.8107 0.29357 22.6081 0.292969H14.0859C13.8824 0.293269 13.6811 0.333638 13.4932 0.411771C13.3054 0.489905 13.1348 0.604272 12.9911 0.748343C12.8475 0.892415 12.7336 1.06337 12.656 1.25144C12.5785 1.43952 12.5387 1.64103 12.539 1.84447V7.18945C12.5388 7.39221 12.5787 7.59302 12.6563 7.78033C12.734 7.96764 12.8478 8.13778 12.9914 8.28096C13.1349 8.42415 13.3054 8.53757 13.4929 8.61471C13.6804 8.69185 13.8813 8.73119 14.0841 8.73047H17.9712C17.9683 9.0089 17.996 9.28681 18.0537 9.55922L7.70327 9.56063C6.62425 9.56354 5.563 9.83563 4.61568 10.3523C3.66836 10.8689 2.86491 11.6137 2.27813 12.5192C1.69134 13.4248 1.33977 14.4624 1.25526 15.5381C1.17075 16.6138 1.35598 17.6936 1.79415 18.6797L0.842063 25.1082C0.705945 26.0298 0.898183 26.9699 1.38515 27.764C1.87211 28.5581 2.62279 29.1558 3.50586 29.4524C4.38894 29.7489 5.34818 29.7256 6.21578 29.3864C7.08337 29.0472 7.80408 28.4137 8.25183 27.5968L11.8486 21.0275C12.2865 20.66 12.6746 20.2367 13.0029 19.7687C13.2215 19.4561 13.5117 19.2005 13.8494 19.0233C14.1871 18.846 14.5624 18.7523 14.9438 18.75H15.0734C15.4535 18.7521 15.8276 18.845 16.1645 19.021C16.5014 19.197 16.7913 19.4511 17.0101 19.7619C17.3391 20.2288 17.7285 20.6502 18.1681 21.0149L21.7207 27.641C22.0651 28.2657 22.5707 28.7867 23.1849 29.1495C23.7992 29.5124 24.4994 29.7039 25.2128 29.7041C25.6045 29.7043 25.9939 29.6461 26.3684 29.5312C28.2587 28.9512 29.4103 27.0762 29.1687 24.9724C29.1683 24.9686 29.1679 24.965 29.1673 24.9609ZM14.0852 8.02734H14.0844C13.9737 8.0281 13.864 8.00689 13.7615 7.96493C13.6591 7.92298 13.566 7.86111 13.4877 7.78292C13.4093 7.70473 13.3473 7.61176 13.3052 7.50942C13.263 7.40707 13.2416 7.29738 13.2421 7.1867V1.84453C13.2417 1.73339 13.2632 1.62325 13.3054 1.52043C13.3476 1.41761 13.4097 1.32412 13.488 1.24531C13.5664 1.1665 13.6596 1.10392 13.7621 1.06116C13.8647 1.0184 13.9747 0.996286 14.0859 0.996094H22.6081C22.7184 0.996596 22.8276 1.01902 22.9293 1.06207C23.0309 1.10512 23.123 1.16793 23.2001 1.24686C23.2773 1.32579 23.338 1.41927 23.3788 1.52186C23.4195 1.62445 23.4394 1.73411 23.4375 1.84447V7.18658C23.4393 7.29655 23.4192 7.40579 23.3784 7.50789C23.3375 7.61 23.2766 7.70292 23.1994 7.78122C23.1222 7.85952 23.0301 7.92162 22.9285 7.96388C22.827 8.00614 22.718 8.02772 22.6081 8.02734H21.5728C20.9813 8.02734 20.5201 8.23769 20.2017 8.64492C19.7098 9.27416 19.7076 10.2504 19.7782 10.905C19.6717 10.837 19.5705 10.7609 19.4755 10.6775C18.9096 10.1777 18.641 9.48217 18.6774 8.60947C18.6843 8.46541 18.6346 8.32437 18.5389 8.21649C18.4431 8.1086 18.309 8.04242 18.1652 8.03209C18.1558 8.03156 18.1464 8.02734 18.134 8.02734H14.0852ZM7.63513 27.2592C7.26689 27.9317 6.67385 28.4533 5.9598 28.7326C5.24576 29.012 4.4562 29.0313 3.72935 28.7872C3.0025 28.5431 2.38466 28.0511 1.98399 27.3974C1.58331 26.7437 1.42533 25.9698 1.53769 25.2114L2.35595 19.6875C2.95049 20.5569 3.74736 21.2688 4.678 21.762C5.60864 22.2552 6.64518 22.5148 7.69841 22.5186C8.70562 22.5182 9.6992 22.2859 10.6022 21.8397L7.63513 27.2592ZM17.5843 19.3535C17.3004 18.9512 16.9244 18.6227 16.4876 18.3954C16.0508 18.168 15.566 18.0486 15.0736 18.0469H14.9432C14.4492 18.0492 13.963 18.17 13.5254 18.3991C13.0878 18.6282 12.7114 18.959 12.428 19.3635C11.8558 20.172 11.0851 20.8196 10.1902 21.2441C9.29534 21.6686 8.30628 21.8558 7.31815 21.7876C6.33001 21.7194 5.37603 21.3982 4.54792 20.8548C3.71982 20.3114 3.04543 19.5641 2.5896 18.6847C2.13378 17.8053 1.91184 16.8235 1.94512 15.8336C1.97841 14.8437 2.2658 13.8789 2.77967 13.0322C3.29354 12.1854 4.0166 11.4851 4.87934 10.9985C5.74208 10.512 6.71549 10.2556 7.70597 10.2539H18.2896C18.4637 10.6151 18.7088 10.9374 19.0103 11.2016C19.3385 11.4939 19.7245 11.714 20.1432 11.8477C20.2022 11.864 20.2644 11.8645 20.3237 11.8493C20.383 11.834 20.4372 11.8035 20.481 11.7607C20.5248 11.718 20.5566 11.6645 20.5733 11.6056C20.5899 11.5467 20.5909 11.4844 20.576 11.4251C20.4873 11.0411 20.444 10.6481 20.4471 10.254H22.2945C23.8252 10.2541 25.2932 10.8622 26.3755 11.9446C27.4579 13.027 28.0659 14.495 28.0658 16.0257C28.0658 17.5564 27.4577 19.0244 26.3753 20.1067C25.2929 21.189 23.8249 21.797 22.2942 21.797H22.2899C21.3674 21.7952 20.4587 21.5725 19.64 21.1473C18.8213 20.7222 18.1164 20.1071 17.5843 19.3535ZM26.1621 28.8596C25.4435 29.078 24.6717 29.0431 23.9758 28.7607C23.28 28.4783 22.7021 27.9655 22.339 27.3081L19.3945 21.8186C20.2928 22.2695 21.2839 22.5045 22.289 22.5049C22.2907 22.5048 22.2923 22.5048 22.294 22.5049C23.1476 22.5063 23.9929 22.3375 24.7805 22.0084C25.5681 21.6793 26.2822 21.1965 26.8811 20.5883C27.1724 20.2951 27.4355 19.9751 27.6668 19.6325L28.4706 25.0583C28.6706 26.8184 27.7217 28.3808 26.1621 28.8596Z" fill="url(#paint11_linear_1_2357)"/>
<path d="M7.38281 11.6016H7.67578C7.76902 11.6016 7.85844 11.5645 7.92437 11.4986C7.9903 11.4327 8.02734 11.3432 8.02734 11.25C8.02734 11.1568 7.9903 11.0673 7.92437 11.0014C7.85844 10.9355 7.76902 10.8984 7.67578 10.8984H7.38281C7.28957 10.8984 7.20015 10.9355 7.13422 11.0014C7.06829 11.0673 7.03125 11.1568 7.03125 11.25C7.03125 11.3432 7.06829 11.4327 7.13422 11.4986C7.20015 11.5645 7.28957 11.6016 7.38281 11.6016Z" fill="url(#paint12_linear_1_2357)"/>
<path d="M13.0078 11.25C13.0078 11.1568 12.9708 11.0673 12.9048 11.0014C12.8389 10.9355 12.7495 10.8984 12.6562 10.8984H8.78906C8.69582 10.8984 8.6064 10.9355 8.54047 11.0014C8.47454 11.0673 8.4375 11.1568 8.4375 11.25C8.4375 11.3432 8.47454 11.4327 8.54047 11.4986C8.6064 11.5645 8.69582 11.6016 8.78906 11.6016H12.6562C12.7495 11.6016 12.8389 11.5645 12.9048 11.4986C12.9708 11.4327 13.0078 11.3432 13.0078 11.25Z" fill="url(#paint13_linear_1_2357)"/>
</g>
<defs>
<linearGradient id="paint0_linear_1_2357" x1="15.9096" y1="2.52148" x2="15.9096" y2="6.86317" gradientUnits="userSpaceOnUse">
<stop stop-color="#02CE80"/>
<stop offset="1" stop-color="#7BD706"/>
</linearGradient>
<linearGradient id="paint1_linear_1_2357" x1="20.7843" y1="2.52148" x2="20.7843" y2="6.86317" gradientUnits="userSpaceOnUse">
<stop stop-color="#02CE80"/>
<stop offset="1" stop-color="#7BD706"/>
</linearGradient>
<linearGradient id="paint2_linear_1_2357" x1="18.3466" y1="1.7793" x2="18.3466" y2="7.6079" gradientUnits="userSpaceOnUse">
<stop stop-color="#02CE80"/>
<stop offset="1" stop-color="#7BD706"/>
</linearGradient>
<linearGradient id="paint3_linear_1_2357" x1="15.309" y1="11.6016" x2="15.309" y2="13.8867" gradientUnits="userSpaceOnUse">
<stop stop-color="#02CE80"/>
<stop offset="1" stop-color="#7BD706"/>
</linearGradient>
<linearGradient id="paint4_linear_1_2357" x1="25.1762" y1="14.6404" x2="25.1762" y2="17.4394" gradientUnits="userSpaceOnUse">
<stop stop-color="#02CE80"/>
<stop offset="1" stop-color="#7BD706"/>
</linearGradient>
<linearGradient id="paint5_linear_1_2357" x1="19.4121" y1="14.6404" x2="19.4121" y2="17.4394" gradientUnits="userSpaceOnUse">
<stop stop-color="#02CE80"/>
<stop offset="1" stop-color="#7BD706"/>
</linearGradient>
<linearGradient id="paint6_linear_1_2357" x1="22.2943" y1="17.5222" x2="22.2943" y2="20.3212" gradientUnits="userSpaceOnUse">
<stop stop-color="#02CE80"/>
<stop offset="1" stop-color="#7BD706"/>
</linearGradient>
<linearGradient id="paint7_linear_1_2357" x1="22.294" y1="11.7583" x2="22.294" y2="14.5573" gradientUnits="userSpaceOnUse">
<stop stop-color="#02CE80"/>
<stop offset="1" stop-color="#7BD706"/>
</linearGradient>
<linearGradient id="paint8_linear_1_2357" x1="22.2942" y1="15.4082" x2="22.2942" y2="16.6715" gradientUnits="userSpaceOnUse">
<stop stop-color="#02CE80"/>
<stop offset="1" stop-color="#7BD706"/>
</linearGradient>
<linearGradient id="paint9_linear_1_2357" x1="7.76357" y1="13.6523" x2="7.76357" y2="18.3987" gradientUnits="userSpaceOnUse">
<stop stop-color="#02CE80"/>
<stop offset="1" stop-color="#7BD706"/>
</linearGradient>
<linearGradient id="paint10_linear_1_2357" x1="7.74756" y1="11.8796" x2="7.74756" y2="20.2" gradientUnits="userSpaceOnUse">
<stop stop-color="#02CE80"/>
<stop offset="1" stop-color="#7BD706"/>
</linearGradient>
<linearGradient id="paint11_linear_1_2357" x1="15" y1="0.292969" x2="15" y2="29.7041" gradientUnits="userSpaceOnUse">
<stop stop-color="#02CE80"/>
<stop offset="1" stop-color="#7BD706"/>
</linearGradient>
<linearGradient id="paint12_linear_1_2357" x1="7.5293" y1="10.8984" x2="7.5293" y2="11.6016" gradientUnits="userSpaceOnUse">
<stop stop-color="#02CE80"/>
<stop offset="1" stop-color="#7BD706"/>
</linearGradient>
<linearGradient id="paint13_linear_1_2357" x1="10.7227" y1="10.8984" x2="10.7227" y2="11.6016" gradientUnits="userSpaceOnUse">
<stop stop-color="#02CE80"/>
<stop offset="1" stop-color="#7BD706"/>
</linearGradient>
<clipPath id="clip0_1_2357">
<rect width="30" height="30" fill="white"/>
</clipPath>
</defs>
</svg>
