<svg id="Group_54" data-name="Group 54" xmlns="http://www.w3.org/2000/svg" xmlns:xlink="http://www.w3.org/1999/xlink" width="83.991" height="84.007" viewBox="0 0 83.991 84.007">
  <defs>
    <clipPath id="clip-path">
      <rect id="Rectangle_15" data-name="Rectangle 15" width="83.991" height="84.007" fill="#2463af"/>
    </clipPath>
  </defs>
  <g id="Group_9" data-name="Group 9" clip-path="url(#clip-path)">
    <path id="Path_14" data-name="Path 14" d="M75.8,84.007H8.261c-.211-.057-.42-.115-.631-.169A9.856,9.856,0,0,1,0,74.034Q0,45.191.008,16.347A9.833,9.833,0,0,1,8.052,6.732a28.419,28.419,0,0,1,4.822-.144c.675-.009.92-.238.907-.913-.031-1.611.007-3.223-.016-4.834-.009-.581.173-.84.793-.83,1.693.027,3.387.032,5.08,0,.675-.014.833.282.824.884-.024,1.584.02,3.169-.018,4.752-.018.725.258.941.96.94q20.608-.022,41.216,0c.75,0,1.019-.233,1-.991-.045-1.474-.015-2.95-.012-4.425,0-1.146,0-1.15,1.11-1.153,1.5,0,3.006.037,4.506-.016.8-.029,1.118.2,1.083,1.051-.062,1.554,0,3.113-.026,4.67-.011.643.24.877.872.859,1.037-.031,2.076,0,3.114-.008a9.366,9.366,0,0,1,5.053,1.433,10.154,10.154,0,0,1,4.676,6.827V75.812a12.733,12.733,0,0,1-1.175,3.2A10.2,10.2,0,0,1,75.8,84.007m-33.817-6.62H71.314c.847,0,1.694.021,2.54-.008a3.318,3.318,0,0,0,3.513-3.5c.008-.191,0-.383,0-.574q0-20.567,0-41.134c0-1.2,0-1.205-1.246-1.205H7.949c-1.262,0-1.264,0-1.264,1.27q0,20.526,0,41.052a7.653,7.653,0,0,0,.1,1.3,3,3,0,0,0,2.67,2.694,8.009,8.009,0,0,0,1.384.1q15.569.009,31.138,0m-.023-53.109H74.563c.682,0,1.365-.013,2.048,0,.5.011.765-.172.762-.71-.012-2.321.053-4.645-.029-6.963a3.241,3.241,0,0,0-3.491-3.341c-.873-.029-1.749.026-2.621-.018-.707-.035-.977.219-.959.942.039,1.556-.024,3.114.026,4.669.025.77-.266.987-1,.968-1.583-.042-3.169-.049-4.751,0-.778.025-.982-.279-.963-1,.04-1.528-.019-3.059.025-4.588.022-.752-.236-1-.991-.995q-20.605.026-41.21,0c-.774,0-.991.281-.973,1.013.041,1.583-.006,3.168.019,4.751.009.6-.211.821-.811.812-1.665-.026-3.332-.032-5,0-.68.015-.907-.232-.892-.9.034-1.583-.011-3.168.019-4.751.013-.66-.2-.957-.893-.922-.79.04-1.584,0-2.375.01-2.555.019-3.814,1.284-3.825,3.856-.009,1.994,0,3.987,0,5.981,0,1.179,0,1.181,1.188,1.181H41.955" transform="translate(0 0)" fill="#2463af"/>
    <path id="Path_15" data-name="Path 15" d="M31.051,90.683c-.873,0-1.747-.012-2.62,0-.485.009-.686-.192-.682-.68q.018-2.66,0-5.321c0-.485.192-.686.68-.682q2.66.018,5.321,0c.485,0,.686.192.683.68q-.019,2.66,0,5.321c0,.485-.192.691-.68.682-.9-.017-1.8,0-2.7,0" transform="translate(-15.289 -46.286)" fill="#2463af"/>
    <path id="Path_16" data-name="Path 16" d="M63.632,87.344c0,.873-.016,1.747.006,2.62.013.524-.2.729-.724.724q-2.62-.024-5.239,0c-.524,0-.729-.2-.724-.725q.024-2.619,0-5.239c0-.524.2-.729.725-.724q2.619.024,5.239,0c.524,0,.736.2.724.725-.021.873-.006,1.746-.006,2.62" transform="translate(-31.379 -46.283)" fill="#2463af"/>
    <path id="Path_17" data-name="Path 17" d="M89.555,84.006c.846,0,1.692.013,2.538-.006.5-.011.758.146.753.7-.018,1.773-.015,3.547,0,5.321,0,.5-.219.672-.694.669q-2.66-.017-5.321,0c-.5,0-.671-.219-.669-.694q.017-2.66,0-5.321c0-.5.219-.676.694-.668.9.015,1.8,0,2.7,0" transform="translate(-47.473 -46.283)" fill="#2463af"/>
    <path id="Path_18" data-name="Path 18" d="M122.04,87.366c0,.846-.019,1.692.006,2.537.016.55-.178.788-.754.781q-2.578-.033-5.157,0c-.549.006-.788-.179-.78-.755q.033-2.578,0-5.157c-.006-.549.178-.788.754-.78,1.719.022,3.438.026,5.157,0,.63-.01.8.269.781.84-.027.845-.007,1.691-.008,2.537" transform="translate(-63.56 -46.277)" fill="#2463af"/>
    <path id="Path_19" data-name="Path 19" d="M151.249,87.408c0,.846-.015,1.692,0,2.538.012.511-.172.744-.709.739q-2.619-.025-5.239,0c-.511,0-.744-.172-.739-.709q.025-2.62,0-5.239c0-.511.173-.744.71-.739,1.746.017,3.493.021,5.239,0,.589-.008.754.259.74.794-.023.873-.006,1.746-.007,2.62" transform="translate(-79.655 -46.28)" fill="#2463af"/>
    <path id="Path_20" data-name="Path 20" d="M34.426,116.55c0,.873-.016,1.747.006,2.62.013.524-.2.729-.724.724q-2.62-.024-5.239,0c-.524,0-.729-.2-.724-.725q.024-2.619,0-5.239c0-.524.2-.729.725-.724q2.619.024,5.239,0c.524,0,.736.2.724.725-.021.873-.006,1.746-.006,2.619" transform="translate(-15.287 -62.376)" fill="#2463af"/>
    <path id="Path_21" data-name="Path 21" d="M63.633,116.6c0,.873-.012,1.747,0,2.62.009.489-.2.682-.683.679q-2.66-.018-5.321,0c-.489,0-.682-.2-.679-.684q.018-2.66,0-5.321c0-.489.2-.682.684-.679q2.66.018,5.321,0c.489,0,.688.2.679.684-.016.9,0,1.8,0,2.7" transform="translate(-31.381 -62.378)" fill="#2463af"/>
    <path id="Path_22" data-name="Path 22" d="M89.428,119.887c-.846,0-1.692-.016-2.538,0-.514.013-.74-.18-.735-.713q.025-2.619,0-5.239c0-.514.18-.74.713-.735q2.619.025,5.239,0c.514,0,.74.18.735.713-.017,1.746-.021,3.493,0,5.239.008.592-.266.75-.8.737-.873-.022-1.746-.006-2.62-.007" transform="translate(-47.471 -62.375)" fill="#2463af"/>
    <path id="Path_23" data-name="Path 23" d="M118.7,113.211c.873,0,1.747.016,2.62-.006.524-.013.729.2.724.724q-.024,2.619,0,5.239c0,.524-.2.729-.724.724q-2.619-.024-5.239,0c-.524,0-.729-.2-.724-.724q.024-2.619,0-5.239c0-.524.2-.737.724-.724.873.022,1.746.006,2.62.006" transform="translate(-63.563 -62.375)" fill="#2463af"/>
    <path id="Path_24" data-name="Path 24" d="M151.248,116.555c0,.873-.016,1.747.006,2.62.013.529-.211.724-.73.719q-2.619-.024-5.239,0c-.529,0-.724-.211-.719-.73q.024-2.62,0-5.239c0-.528.211-.723.73-.719q2.62.024,5.239,0c.528,0,.731.211.718.73-.021.873-.006,1.746-.006,2.62" transform="translate(-79.655 -62.375)" fill="#2463af"/>
    <path id="Path_25" data-name="Path 25" d="M34.426,145.684c0,.873-.015,1.747.007,2.62.013.532-.145.806-.737.8-1.746-.023-3.493-.019-5.239,0-.533.005-.718-.221-.713-.735q.024-2.619,0-5.239c0-.533.221-.718.735-.713q2.619.024,5.239,0c.534,0,.726.221.713.735-.021.845-.005,1.692,0,2.538" transform="translate(-15.287 -78.467)" fill="#2463af"/>
    <path id="Path_26" data-name="Path 26" d="M60.3,142.416c.873,0,1.747.016,2.619-.006.526-.013.727.2.722.727q-.024,2.619,0,5.239c0,.525-.2.727-.727.722q-2.619-.024-5.239,0c-.526,0-.727-.205-.722-.727q.024-2.619,0-5.239c0-.526.2-.735.726-.722.873.021,1.746.006,2.62.006" transform="translate(-31.379 -78.467)" fill="#2463af"/>
    <path id="Path_27" data-name="Path 27" d="M89.5,142.416c.873,0,1.747.016,2.619-.006.524-.013.729.2.724.724q-.024,2.619,0,5.239c0,.524-.2.729-.725.724q-2.619-.024-5.239,0c-.524,0-.729-.2-.724-.725q.024-2.619,0-5.239c0-.524.2-.736.725-.724.873.021,1.746.006,2.62.006" transform="translate(-47.471 -78.467)" fill="#2463af"/>
    <path id="Path_28" data-name="Path 28" d="M118.75,142.42c.873,0,1.747.012,2.62,0,.489-.009.682.2.679.683q-.018,2.66,0,5.321c0,.489-.2.682-.684.679q-2.66-.018-5.321,0c-.489,0-.682-.2-.679-.684q.018-2.66,0-5.321c0-.488.2-.688.684-.679.9.016,1.8,0,2.7,0" transform="translate(-63.565 -78.47)" fill="#2463af"/>
  </g>
</svg>
