<?xml version="1.0" encoding="UTF-8"?>
<svg xmlns="http://www.w3.org/2000/svg" id="Layer_1" data-name="Layer 1" viewBox="0 0 24 24">
  <path d="M23,16.755c0-2.521-.967-3.892-2.279-4.629-.108-7.176-2.81-10.383-8.721-10.383S3.38,4.957,3.278,12.152c-1.256,.73-2.278,2.085-2.278,4.603,0,4.89,3.638,5.455,6.375,5.455,.431,0,.813-.276,.949-.686,1.02-3.075,1.02-6.464,0-9.539-.136-.409-.518-.686-.949-.686-.474,0-1.239,0-2.077,.148,.269-6.36,2.882-7.706,6.702-7.706s6.434,1.347,6.702,7.71c-.702-.119-1.416-.152-2.077-.152-.431,0-.813,.276-.949,.686-.881,2.657-1,5.547-.359,8.268-1.064,.018-2.083-.013-3.044-.091-.561-.041-1.033,.366-1.077,.917-.044,.55,.366,1.032,.916,1.077,.839,.067,1.718,.102,2.629,.102,.623,0,1.261-.016,1.911-.048,1.603,0,6.348-.03,6.348-5.455Zm-16.363,3.438c-2.669-.138-3.637-1.091-3.637-3.438s.968-3.3,3.637-3.438c.604,2.241,.604,4.634,0,6.875Zm10.726,0c-.604-2.241-.604-4.635,0-6.875,2.669,.138,3.637,1.091,3.637,3.438s-.968,3.3-3.637,3.438Z"/>
</svg>
