<svg id="Group_6" data-name="Group 6" xmlns="http://www.w3.org/2000/svg" xmlns:xlink="http://www.w3.org/1999/xlink" width="135.891" height="46" viewBox="0 0 135.891 46">
  <defs>
    <clipPath id="clip-path">
      <rect id="Rectangle_4" data-name="Rectangle 4" width="135.891" height="46" fill="none"/>
    </clipPath>
  </defs>
  <g id="Group_5" data-name="Group 5" clip-path="url(#clip-path)">
    <path id="Path_7" data-name="Path 7" d="M74.434,14.035c.149-.13.291-.269.448-.389a49.09,49.09,0,0,1,8.553-5.083,81.45,81.45,0,0,1,16.635-5.8A102.508,102.508,0,0,1,110.865.84,110.624,110.624,0,0,1,128.79.078c3.075.111,6.15.377,9.212.694a96.34,96.34,0,0,1,17.947,3.636,79.77,79.77,0,0,1,16.931,7.158c1.25.721,2.444,1.541,3.662,2.318a1.934,1.934,0,0,1,.419.316,1.6,1.6,0,0,1,.192.4,1.144,1.144,0,0,1-.444.066,3.073,3.073,0,0,1-.779-.328A61.623,61.623,0,0,0,161.4,8.15a96.558,96.558,0,0,0-12.448-2.9c-2.6-.431-5.205-.812-7.823-1.079-3.183-.325-6.379-.55-9.574-.74A130.966,130.966,0,0,0,117.9,3.383c-3.1.14-6.2.409-9.294.693A96.139,96.139,0,0,0,95.983,6.123,68.225,68.225,0,0,0,80.95,11.214c-1.488.731-2.894,1.626-4.356,2.411a9.567,9.567,0,0,1-1.563.613,1.512,1.512,0,0,1-.567-.048l-.03-.155" transform="translate(-53.299 0)" fill="#2463af"/>
    <path id="Path_8" data-name="Path 8" d="M112.048,110.562h8.808l1.744-6.487q1.25-4.646,3.062-6.341a4.538,4.538,0,0,1,2.873-1.382,6.265,6.265,0,0,1,2.783.258l1.962-5.384a5.313,5.313,0,0,0-2.27-.452,6.526,6.526,0,0,0-3.2.774,11.6,11.6,0,0,0-3.206,2.833l.853-3.17H117.25ZM101.824,99.174a6.417,6.417,0,0,1,1.712-2.606,5.527,5.527,0,0,1,3.715-1.4,3.47,3.47,0,0,1,2.668.929,3.651,3.651,0,0,1,.539,3.079Zm16.822,2.715a10.643,10.643,0,0,0,.185-6.213,6.409,6.409,0,0,0-3.349-3.644,17.092,17.092,0,0,0-7.415-1.257A17.985,17.985,0,0,0,97.826,93.58a12.591,12.591,0,0,0-5.409,7.343,8.05,8.05,0,0,0,.22,5.548,6.8,6.8,0,0,0,3.392,3.444A16.815,16.815,0,0,0,102.887,111a22.83,22.83,0,0,0,8.373-1.266,16.92,16.92,0,0,0,5.906-4.182l-8.455-.674a8.044,8.044,0,0,1-1.857,1.221,6.712,6.712,0,0,1-2.6.547,3.463,3.463,0,0,1-2.978-1.257,3.539,3.539,0,0,1-.426-2.66h17.574Z" transform="translate(-65.904 -65)" fill="#2463af"/>
    <path id="Path_9" data-name="Path 9" d="M0,95.3H7.4l7.673,9.988L22.923,95.3h7.731l-15.327,18.65Z" transform="translate(0 -68.243)" fill="#2463af"/>
    <path id="Path_10" data-name="Path 10" d="M284.26,69l-.955,3.553h-3.23l-1.46,5.43h3.231l-1.83,6.807a10.569,10.569,0,0,0-.517,4.686,3.2,3.2,0,0,0,1.714,2.157,10.815,10.815,0,0,0,4.633.71,36.189,36.189,0,0,0,6.235-.6l.73-5.119a12.687,12.687,0,0,1-2.841.473q-1.077,0-1.341-.618a3.037,3.037,0,0,1,.16-1.637l1.843-6.856h4.824l1.46-5.43h-4.824l1.979-7.361Zm-2.77,3.553h-8.765l-2.5,9.311a6.866,6.866,0,0,1-1.986,3.662,4.446,4.446,0,0,1-2.848,1.02,2.42,2.42,0,0,1-2.034-.765,3.025,3.025,0,0,1-.1-2.587l2.861-10.641-9.135-.4-2.984,12.718q-1.024,3.808.54,5.64t5.183,1.831a13.034,13.034,0,0,0,4.8-.82,16.934,16.934,0,0,0,4.433-2.752L268.1,91.9h8.184ZM237.85,91.9h8.808l1.744-6.487q1.25-4.646,3.062-6.341a4.212,4.212,0,0,1,2.994-1.2,6.694,6.694,0,0,1,2.308.547l5.458-5.995c-2.036-.117-4-.31-5.292-.31a7.009,7.009,0,0,0-3.32.774,11.609,11.609,0,0,0-3.206,2.833l.852-3.17h-8.205Zm1.579-21.046a2.679,2.679,0,0,1,1.019-1.066,3.782,3.782,0,0,1,1.792-.337,18.066,18.066,0,0,1,2.482.219l2.174-4.482q-4.271-.455-6.575-.456a14.7,14.7,0,0,0-4.532.556,8.3,8.3,0,0,0-2.718,1.458,6.875,6.875,0,0,0-1.755,2.323,15.176,15.176,0,0,0-1,2.606l-.235.875-1.679.029-2,5.384,2.215.017L224.877,91.9h8.787l3.743-13.922h4.178l1.459-5.43h-4.178a9.581,9.581,0,0,1,.563-1.695" transform="translate(-161.025 -46.353)" fill="#da251c"/>
    <path id="Path_11" data-name="Path 11" d="M48.052,61.985a5.231,5.231,0,1,1-5.221-5.29,5.238,5.238,0,0,1,5.221,5.29" transform="translate(-26.917 -40.597)" fill="#da251c"/>
  </g>
</svg>
