<?xml version="1.0" encoding="UTF-8"?>
<svg id="Capa_1" xmlns="http://www.w3.org/2000/svg" version="1.1" viewBox="0 0 1920 1080">
  <!-- Generator: Adobe Illustrator 30.0.0, SVG Export Plug-In . SVG Version: 2.1.1 Build 123)  -->
  <defs>
    <style>
      .st0 {
        fill: #444;
      }

      .st1 {
        fill: #da251c;
      }

      .st2 {
        fill: #2463af;
      }
    </style>
  </defs>
  <g>
    <g>
      <path class="st0" d="M614.3,742c1.6-3.2,3.8-5.7,6.5-7.4,2.8-1.7,5.8-2.6,9.2-2.6s5.4.6,7.6,1.8c2.2,1.2,3.9,2.7,5.1,4.6v-5.8h12.6v41.1h-12.6v-5.8c-1.2,1.9-2.9,3.5-5.1,4.6-2.2,1.2-4.7,1.8-7.6,1.8s-6.4-.9-9.1-2.6c-2.8-1.7-4.9-4.2-6.5-7.4-1.6-3.2-2.4-6.9-2.4-11.2s.8-7.9,2.4-11.1ZM640.1,745.8c-1.7-1.8-3.9-2.7-6.4-2.7s-4.6.9-6.4,2.7c-1.7,1.8-2.6,4.3-2.6,7.4s.9,5.6,2.6,7.5c1.7,1.8,3.9,2.8,6.4,2.8s4.6-.9,6.4-2.7c1.7-1.8,2.6-4.3,2.6-7.4s-.9-5.6-2.6-7.4Z"/>
      <path class="st0" d="M966.6,742c1.7-3.2,4.2-5.7,7.3-7.4,3.1-1.7,6.7-2.6,10.7-2.6s9.5,1.4,12.9,4.1c3.5,2.7,5.7,6.5,6.8,11.4h-13.4c-1.1-3.1-3.3-4.7-6.6-4.7s-4.2.9-5.5,2.7c-1.4,1.8-2.1,4.4-2.1,7.7s.7,5.9,2.1,7.7c1.4,1.8,3.2,2.7,5.5,2.7s5.4-1.6,6.6-4.7h13.4c-1.1,4.8-3.4,8.6-6.9,11.4-3.5,2.8-7.8,4.1-12.9,4.1s-7.6-.9-10.7-2.6c-3.1-1.7-5.6-4.2-7.3-7.4-1.7-3.2-2.6-6.9-2.6-11.2s.9-8,2.6-11.2Z"/>
      <path class="st0" d="M1015.6,771.8c-3.2-1.7-5.8-4.2-7.6-7.4-1.8-3.2-2.8-6.9-2.8-11.2s.9-8,2.8-11.2c1.9-3.2,4.4-5.7,7.7-7.4,3.2-1.7,6.9-2.6,10.9-2.6s7.7.9,10.9,2.6c3.2,1.7,5.8,4.2,7.7,7.4,1.9,3.2,2.8,6.9,2.8,11.2s-.9,8-2.8,11.2c-1.9,3.2-4.5,5.7-7.7,7.4-3.3,1.7-6.9,2.6-11,2.6s-7.7-.9-10.9-2.6ZM1032.7,760.8c1.7-1.8,2.5-4.3,2.5-7.6s-.8-5.8-2.5-7.6c-1.6-1.8-3.7-2.7-6.1-2.7s-4.5.9-6.1,2.6c-1.6,1.7-2.4,4.3-2.4,7.6s.8,5.8,2.4,7.6c1.6,1.8,3.6,2.7,6,2.7s4.5-.9,6.2-2.7Z"/>
      <path class="st0" d="M1116.1,736.9c3,3.1,4.5,7.4,4.5,12.9v24h-12.5v-22.3c0-2.7-.7-4.7-2.1-6.2-1.4-1.4-3.3-2.2-5.8-2.2s-4.4.7-5.8,2.2c-1.4,1.5-2.1,3.5-2.1,6.2v22.3h-12.5v-22.3c0-2.7-.7-4.7-2.1-6.2-1.4-1.4-3.3-2.2-5.8-2.2s-4.4.7-5.8,2.2c-1.4,1.5-2.1,3.5-2.1,6.2v22.3h-12.6v-41.1h12.6v5.2c1.3-1.7,2.9-3.1,5-4.1,2.1-1,4.4-1.5,7-1.5s5.9.7,8.3,2c2.4,1.3,4.3,3.2,5.7,5.7,1.4-2.3,3.4-4.1,5.8-5.5,2.5-1.4,5.1-2.1,8-2.1,5.1,0,9.2,1.5,12.2,4.6Z"/>
      <path class="st0" d="M1143.9,733.8c2.2-1.2,4.7-1.8,7.6-1.8s6.5.9,9.2,2.6c2.8,1.7,4.9,4.2,6.5,7.4,1.6,3.2,2.4,6.9,2.4,11.1s-.8,8-2.4,11.2c-1.6,3.2-3.8,5.7-6.5,7.4-2.8,1.7-5.8,2.6-9.2,2.6s-5.4-.6-7.6-1.8c-2.2-1.2-3.9-2.7-5.1-4.6v25.4h-12.6v-60.8h12.6v5.8c1.2-1.9,2.9-3.5,5.1-4.6ZM1154.2,745.7c-1.7-1.8-3.9-2.7-6.5-2.7s-4.6.9-6.4,2.7c-1.7,1.8-2.6,4.3-2.6,7.4s.9,5.6,2.6,7.4c1.7,1.8,3.9,2.7,6.4,2.7s4.6-.9,6.4-2.8c1.8-1.8,2.7-4.3,2.7-7.5s-.9-5.6-2.6-7.4Z"/>
      <path class="st0" d="M1172.8,742c1.6-3.2,3.8-5.7,6.5-7.4,2.8-1.7,5.8-2.6,9.2-2.6s5.4.6,7.6,1.8c2.2,1.2,3.9,2.7,5.1,4.6v-5.8h12.6v41.1h-12.6v-5.8c-1.2,1.9-2.9,3.5-5.1,4.6-2.2,1.2-4.7,1.8-7.6,1.8s-6.4-.9-9.1-2.6c-2.8-1.7-4.9-4.2-6.5-7.4-1.6-3.2-2.4-6.9-2.4-11.2s.8-7.9,2.4-11.1ZM1198.6,745.8c-1.7-1.8-3.9-2.7-6.4-2.7s-4.6.9-6.4,2.7c-1.7,1.8-2.6,4.3-2.6,7.4s.9,5.6,2.6,7.5c1.7,1.8,3.9,2.8,6.4,2.8s4.6-.9,6.4-2.7c1.7-1.8,2.6-4.3,2.6-7.4s-.9-5.6-2.6-7.4Z"/>
      <path class="st0" d="M1256.3,736.9c2.9,3.1,4.3,7.4,4.3,12.9v24h-12.5v-22.3c0-2.8-.7-4.9-2.1-6.4-1.4-1.5-3.3-2.3-5.8-2.3s-4.3.8-5.8,2.3c-1.4,1.5-2.1,3.7-2.1,6.4v22.3h-12.6v-41.1h12.6v5.5c1.3-1.8,3-3.3,5.2-4.3,2.2-1.1,4.6-1.6,7.3-1.6,4.8,0,8.7,1.6,11.5,4.7Z"/>
      <path class="st0" d="M1308.1,732.7l-25.8,60.7h-13.6l9.4-20.9-16.7-39.7h14.1l9.5,25.7,9.4-25.7h13.6Z"/>
    </g>
    <g>
      <path class="st0" d="M687.1,732.8v21.3c0,.4,1,3,1.3,3.5,2.9,5,10.3,4.6,12.7-.6.2-.4.8-2,.8-2.3v-21.5s.5-.5.5-.5h12.1c.4,0,.5.8.5,1.2.7,6.3.4,22.7-2,28.5-6.5,15.6-31.6,15.1-37.4-.8-.4-1.1-1.5-4.9-1.5-5.8v-23h12.8Z"/>
      <path class="st0" d="M844.6,732.8v21.6c0,.9,1.7,4.1,2.5,4.8,3.3,3.2,9.4,2.2,11.5-2,.2-.4,1-2.6,1-2.8v-21.6h12.8v23.7c0,1.5-1.7,6.1-2.5,7.6-6.5,12.5-27.3,13-34.7,1.2-1.2-2-3.3-6.9-3.3-9.1v-23.4h12.8Z"/>
      <path class="st0" d="M759.1,773.6h-12.5v-20.2c0-.5-.6-2.7-.9-3.3-2.3-6.1-10.8-6.2-13.1,0s-.9,2.6-.9,2.9v20.6h-12.5v-22c0-2.6,2.1-8.4,3.5-10.7,6.2-9.8,22.9-10.9,30.8-2.5,8.3,8.9,4.7,24,5.5,35.1Z"/>
      <path class="st0" d="M800.3,712.3v11.2c-4.5,1.5-7.8,4-7.6,9.2h7.6v12.5h-7.6v28.4h-12.1v-45.5c0-.9,1.5-4.9,2-5.9,3.2-6.3,10.8-9.8,17.7-9.8Z"/>
      <polygon class="st0" points="919 719.9 919 732.8 931.5 732.8 931.5 745.2 919 745.2 919 773.6 906.2 773.6 906.2 719.9 919 719.9"/>
      <path class="st0" d="M889.6,719.9v12.8h12.5v11.9s-.5.5-.5.5h-11.9v28.4h-12.8v-53.6h12.8Z"/>
      <path class="st0" d="M827.3,732.8v11.4c-3.7,0-7.6,1.1-9.4,4.6-.2.4-1,2.2-1,2.5v22.3h-12.1v-25.4c0-1.1,1.4-4.8,2-5.9,3.9-7.4,12.6-9.8,20.5-9.5Z"/>
      <rect class="st0" x="763.2" y="732.8" width="12.8" height="40.8"/>
      <path class="st0" d="M948.4,732.8v40.8h-12.8v-40.3s.5-.5.5-.5h12.3Z"/>
      <path class="st0" d="M948.4,719.9v8.3h-12.3s-.5-.5-.5-.5v-7.8h12.8Z"/>
      <path class="st0" d="M776.1,719.9v7.8s-.5.5-.5.5h-11.8s-.5-.5-.5-.5v-7.8h12.8Z"/>
    </g>
  </g>
  <g>
    <path class="st2" d="M567,405.6c1.2-1.1,2.4-2.3,3.8-3.3,22.3-17,46.6-30.5,71.8-42.7,44.7-21.5,91.4-37.2,139.6-48.7,29.9-7.1,60.1-12.3,90.6-16.2,50-6.3,100.2-8.2,150.5-6.4,25.8.9,51.6,3.2,77.3,5.8,51.2,5.3,101.4,15.7,150.7,30.5,49.5,14.9,97.2,34.2,142.1,60.1,10.5,6.1,20.5,12.9,30.7,19.5,1.2.8,2.6,1.6,3.5,2.7.8.9,1.1,2.2,1.6,3.4-1.3.2-2.6.9-3.7.6-2.3-.6-4.5-1.5-6.5-2.8-38-23.5-79.5-38.9-121.9-51.9-34.3-10.5-69.2-18.5-104.5-24.4-21.8-3.6-43.7-6.8-65.7-9.1-26.7-2.7-53.5-4.6-80.4-6.2-38.2-2.3-76.5-2.1-114.7-.4-26,1.2-52,3.4-78,5.8-35.7,3.3-71,9.2-106,17.2-43.5,9.9-86,23-126.2,42.7-12.5,6.1-24.3,13.6-36.6,20.2-4.1,2.2-8.7,3.7-13.1,5.1-1.4.5-3.2-.2-4.8-.4,0-.4-.2-.9-.2-1.3"/>
    <path class="st2" d="M777,670.2h73.9l14.6-54.5c7-26,15.6-43.7,25.7-53.2,7.1-6.7,14.5-10.8,24.1-11.6,10-.8,14.2-.5,23.4,2.2l16.5-45.2s-7.3-3.8-19.1-3.8-18.6,2.2-26.9,6.5c-8.2,4.3-17.2,12.3-26.9,23.8l7.2-26.6h-68.9l-43.7,162.4ZM691.2,574.6c3.8-9.7,8.6-17,14.4-21.9,9.1-7.9,19.5-11.8,31.2-11.8s17.6,2.6,22.4,7.8c4.8,5.2,6.3,13.8,4.5,25.8h-72.5ZM832.4,597.4c5.8-21.4,6.3-38.8,1.5-52.2-4.7-13.4-14.1-23.6-28.1-30.6-14-7-34.8-10.6-62.2-10.6s-62.5,7.9-86,23.6c-23.4,15.7-38.6,36.3-45.4,61.6-4.8,17.8-4.2,33.4,1.9,46.6,6,13.2,15.5,22.8,28.5,28.9,13,6.1,32.1,9.1,57.6,9.1s52.7-3.5,70.3-10.6c17.6-7.1,34.1-18.8,49.6-35.1l-71-5.7c-5.9,4.9-11.1,8.3-15.6,10.2-7.3,3.1-14.6,4.6-21.8,4.6-11.4,0-19.8-3.5-25-10.6-3.7-4.9-4.9-12.3-3.6-22.3h147.5l1.9-7Z"/>
    <polygon class="st2" points="389.6 514.9 451.8 514.9 516.2 598.8 582.1 514.9 647 514.9 518.3 671.5 389.6 514.9"/>
    <path class="st1" d="M1424.1,477.8l-8,29.8h-27.1l-12.3,45.6h27.1l-15.4,57.1c-4.9,18.1-6.3,31.2-4.3,39.3,2,8.1,6.8,14.1,14.4,18.1,7.6,4,20.6,6,38.9,6s33.2-1.7,52.3-5l6.1-43c-10.5,2.6-18.4,4-23.8,4s-9.8-1.7-11.3-5.2c-1-2.2-.5-6.8,1.3-13.7l15.5-57.6h40.5l12.3-45.6h-40.5l16.6-61.8-82.4,32ZM1400.9,507.7h-73.6l-21,78.2c-4,14.8-9.5,25-16.7,30.7-7.1,5.7-15.1,8.6-23.9,8.6s-13.8-2.1-17.1-6.4c-3.3-4.3-3.6-11.5-.9-21.7l24-89.3-76.7-3.4-25.1,106.8c-5.7,21.3-4.2,37.1,4.5,47.3,8.8,10.2,23.3,15.4,43.5,15.4s28.6-2.3,40.3-6.9c11.7-4.6,24.1-12.3,37.2-23.1l-7.1,26.3h68.7l43.7-162.4ZM1034.5,670.1h73.9l14.6-54.5c7-26,15.6-43.7,25.7-53.2,7.1-6.7,15.5-10.1,25.1-10.1s11.5,1.5,19.4,4.6l45.8-50.3c-17.1-1-33.6-2.6-44.4-2.6s-19.7,2.2-27.9,6.5c-8.2,4.3-17.2,12.3-26.9,23.8l7.2-26.6h-68.9l-43.7,162.4ZM1047.8,493.4c2.3-4.1,5.2-7.1,8.6-8.9,3.4-1.9,8.4-2.8,15-2.8s12.4.6,20.8,1.8l18.3-37.6c-23.9-2.5-42.3-3.8-55.2-3.8s-28.8,1.6-38,4.7c-9.2,3.1-16.8,7.2-22.8,12.2-6,5-10.9,11.5-14.7,19.5-3.8,8-6.6,15.2-8.4,21.9l-2,7.3-14.1.2-16.8,45.2h18.6c0,.1-31.4,117-31.4,117h73.8l31.4-116.9h35.1l12.3-45.6h-35.1c1.9-7.2,3.5-12,4.7-14.2"/>
    <path class="st1" d="M567,467.3c0,24.6-19.6,44.2-44,44.2-24.5,0-43.9-19.8-43.8-44.7,0-24.2,19.8-43.9,44-43.9,24.2,0,43.9,20,43.8,44.4"/>
  </g>
</svg>